<svg version="1.0" xmlns="http://www.w3.org/2000/svg" xmlns:xlink="http://www.w3.org/1999/xlink" width="100%" height="100%" viewBox="0 0 200.000000 75.000000" preserveAspectRatio="xMidYMid meet" color-interpolation-filters="sRGB">
  <g fill="#fff">
    <g transform="matrix(1,0,0,1,0,0)" opacity="1">
      <g>
        <svg x="0" y="0" width="60" height="74.99437542184336">
          <svg xmlns="http://www.w3.org/2000/svg" viewBox="-0.005629400257021189 0 80.00563049316406 100">
            <g fill-rule="evenodd">
              <path d="M80 3.77C59.39 19.79 5.22 27 0 46.84v31.38c0 8.5 2.88 15.55 10.74 21.78C.7 68.08 77.26 73.05 80 45.87z" fill="#6043ce"></path>
              <path d="M51.69 17.48L51.59 0C29.1 15.36 2 18.09 0 46.84v31.38a27 27 0 0 0 2.39 11.67c-.34-34.1 49.56-20.5 49.4-52.8z" fill="#d2bfd3" opacity=".8"></path>
            </g>
          </svg>
        </svg>
      </g>
    </g>
    <g transform="translate(70,15.577238082885742)">
      <g transform="matrix(1,0,0,1,0,0)" opacity="1">
        <g transform="scale(0.6599999999999997)">
          <g>
            <path d="M30.62-4.37L12.28-4.37 12.28-4.37 9.55 1.58Q7.37 5.46 3.44 5.46L3.44 5.46-3.27 5.46Q-3.27 5.46-0.98 0.9 1.31-3.66 4.67-10.34 8.02-17.03 11.46-23.88 14.9-30.73 17.41-35.69L17.41-35.69Q20.96-41.75 27.18-41.75L27.18-41.75 32.42-41.75Q32.47-41.53 33.57-36.9 34.66-32.26 36.27-25.38 37.88-18.5 39.51-11.57 41.15-4.64 42.3 0.16L42.3 0.16Q42.73 2.24 41.45 3.85 40.17 5.46 38.1 5.46L38.1 5.46 32.47 5.46 30.62-4.37ZM25.43-33.02L25.38-33.02 25.38-33.02 15.55-12.06 29.36-12.06 25.43-33.02ZM82.41-4.37L64.07-4.37 64.07-4.37 61.34 1.58Q59.16 5.46 55.23 5.46L55.23 5.46 48.52 5.46Q48.52 5.46 50.81 0.9 53.1-3.66 56.46-10.34 59.81-17.03 63.25-23.88 66.69-30.73 69.2-35.69L69.2-35.69Q72.75-41.75 78.97-41.75L78.97-41.75 84.21-41.75Q84.27-41.53 85.36-36.9 86.45-32.26 88.06-25.38 89.67-18.5 91.31-11.57 92.94-4.64 94.09 0.16L94.09 0.16Q94.53 2.24 93.24 3.85 91.96 5.46 89.89 5.46L89.89 5.46 84.27 5.46 82.41-4.37ZM77.22-33.02L77.17-33.02 77.17-33.02 67.35-12.06 81.15-12.06 77.22-33.02ZM118.1-41.7L127.22-41.7 127.22-41.7Q133.82-41.7 137.29-39.71 140.75-37.71 142.14-34.98 143.53-32.26 143.7-29.91 143.86-27.56 143.7-26.74L143.7-26.74Q143.43-24.72 142.91-23.28 142.39-21.83 141.51-20.3L141.51-20.3Q139.77-17.08 137.04-14.9L137.04-14.9Q134.26-12.72 130.54-11.57L130.54-11.57Q126.83-10.42 121.98-10.42L121.98-10.42 117.94-10.42 116.74-1.36Q116.3 1.64 114.12 3.57 111.93 5.51 108.99 5.51L108.99 5.51 105.98 5.51 111.61-36.02Q111.99-38.53 113.82-40.12 115.64-41.7 118.1-41.7L118.1-41.7ZM133.22-26.03L133.22-26.03 133.22-26.03Q133.6-28.6 132.89-30.29L132.89-30.29Q132.24-31.98 131.04-32.75L131.04-32.75Q129.84-33.57 128.42-33.78L128.42-33.78Q127-34 125.41-34L125.41-34 121.21-34 119.03-18.12 123.67-18.17Q126.07-18.17 127.76-18.83L127.76-18.83Q129.45-19.48 130.65-20.63L130.65-20.63Q131.85-21.78 132.56-23.41L132.56-23.41Q132.84-24.01 132.97-24.56 133.11-25.11 133.22-26.03ZM166.94-34.6L152.92-34.6 152.92-34.6 153.25-36.13Q153.74-38.53 155.57-40.06 157.39-41.59 159.8-41.59L159.8-41.59 191.78-41.59 191.45-39.57Q191.07-37.39 189.46-35.99 187.85-34.6 185.67-34.6L185.67-34.6 177.1-34.6 172.51-1.96Q172.02 1.31 169.62 3.38 167.22 5.46 164 5.46L164 5.46 161.32 5.46 166.94-34.6Z" transform="translate(3.2699999809265137, 41.75)"></path>
          </g>
        </g>
      </g>
      <g fill="#6043ce" transform="matrix(1,0,0,1,-1.445098876953125,36.19160270690918)" opacity="1">
        <g transform="scale(1, 1)">
          <g transform="scale(0.7199999999999998)">
            <path d="M0 0.89L0-8.34L5.06-8.34Q5.77-8.34 6.09-7.73L6.09-7.73Q6.23-7.55 6.23-7.08L6.23-7.08L6.23-4.03Q6.23-3.61 6.09-3.38L6.09-3.38Q5.91-3.05 5.48-2.86L5.48-2.86Q5.30-2.81 5.11-2.81L5.11-2.81L1.88-2.81L1.88 0.89L0 0.89ZM1.88-6.89L1.88-6.89L1.88-4.27Q1.88-3.94 2.20-3.75L2.20-3.75Q2.30-3.75 2.39-3.75L2.39-3.75L3.84-3.75Q4.13-3.75 4.31-3.98L4.31-3.98Q4.36-4.13 4.36-4.27L4.36-4.27L4.36-6.89Q4.36-7.17 4.03-7.36L4.03-7.36Q3.94-7.41 3.84-7.41L3.84-7.41L2.39-7.41Q2.16-7.41 1.97-7.17L1.97-7.17Q1.88-7.03 1.88-6.89ZM25.31 0.89L25.31-8.34L30.80-8.34Q31.55-8.34 31.88-7.59L31.88-7.59Q31.92-7.41 31.92-7.27L31.92-7.27L31.92-4.92Q31.92-4.41 31.45-4.03L31.45-4.03Q31.17-3.84 30.89-3.84L30.89-3.84L29.95-3.84L32.11 0.89L30.23 0.89L28.08-3.84L27.19-3.84L27.19 0.89L25.31 0.89ZM27.19-6.89L27.19-6.89L27.19-5.30Q27.19-4.97 27.52-4.78L27.52-4.78Q27.61-4.73 27.75-4.73L27.75-4.73L29.53-4.73Q29.91-4.73 30.05-5.11L30.05-5.11Q30.05-5.20 30.05-5.30L30.05-5.30L30.05-6.89Q30.05-7.22 29.72-7.36L29.72-7.36Q29.63-7.41 29.58-7.41L29.58-7.41L27.70-7.41Q27.47-7.41 27.28-7.17L27.28-7.17Q27.19-7.03 27.19-6.89ZM52.27-8.34L52.27-8.34L55.97-8.34Q56.67-8.34 57-7.69L57-7.69Q57.09-7.45 57.09-7.27L57.09-7.27L57.09-0.19Q57.09 0.28 56.72 0.66L56.72 0.66Q56.39 0.89 56.02 0.89L56.02 0.89L52.17 0.89Q51.52 0.89 51.19 0.23L51.19 0.23Q51.09 0.05 51.09-0.19L51.09-0.19L51.09-7.27Q51.09-7.73 51.52-8.11L51.52-8.11Q51.80-8.34 52.27-8.34ZM52.97-6.84L52.97-6.84L52.97-0.56Q52.97-0.28 53.20-0.14L53.20-0.14Q53.34-0.05 53.58-0.05L53.58-0.05L54.61-0.05Q54.89-0.05 55.03-0.14L55.03-0.14Q55.22-0.33 55.22-0.56L55.22-0.56L55.22-6.89Q55.22-7.22 54.89-7.36L54.89-7.36Q54.80-7.41 54.70-7.41L54.70-7.41L53.48-7.41Q53.16-7.41 53.02-7.08L53.02-7.08Q52.97-6.98 52.97-6.84ZM76.17-7.41L76.17-8.34L82.17-8.34L82.17-7.41L80.63-7.41Q80.34-7.41 80.16-7.08L80.16-7.08Q80.11-6.98 80.11-6.75L80.11-6.75L80.11 0.89L78.23 0.89L78.23-6.89Q78.23-7.17 77.91-7.36L77.91-7.36Q77.81-7.41 77.72-7.41L77.72-7.41L76.17-7.41ZM102.42-8.34L102.42-8.34L106.13-8.34Q106.83-8.34 107.16-7.69L107.16-7.69Q107.25-7.45 107.25-7.27L107.25-7.27L107.25-0.19Q107.25 0.28 106.88 0.66L106.88 0.66Q106.55 0.89 106.17 0.89L106.17 0.89L102.33 0.89Q101.67 0.89 101.34 0.23L101.34 0.23Q101.25 0.05 101.25-0.19L101.25-0.19L101.25-7.27Q101.25-7.73 101.67-8.11L101.67-8.11Q101.95-8.34 102.42-8.34ZM103.13-6.84L103.13-6.84L103.13-0.56Q103.13-0.28 103.36-0.14L103.36-0.14Q103.50-0.05 103.73-0.05L103.73-0.05L104.77-0.05Q105.05-0.05 105.19-0.14L105.19-0.14Q105.38-0.33 105.38-0.56L105.38-0.56L105.38-6.89Q105.38-7.22 105.05-7.36L105.05-7.36Q104.95-7.41 104.86-7.41L104.86-7.41L103.64-7.41Q103.31-7.41 103.17-7.08L103.17-7.08Q103.13-6.98 103.13-6.84ZM127.45-8.34L132.66-8.34L132.66-7.41L128.72-7.41Q128.48-7.41 128.30-7.17L128.30-7.17Q128.20-7.03 128.20-6.89L128.20-6.89L128.20-0.56Q128.20-0.23 128.58-0.05L128.58-0.05Q128.67-0.05 128.77-0.05L128.77-0.05L132.66-0.05L132.66 0.89L127.41 0.89Q126.89 0.89 126.52 0.42L126.52 0.42Q126.33 0.14 126.33-0.19L126.33-0.19L126.33-7.27Q126.33-7.78 126.84-8.16L126.84-8.16Q127.13-8.34 127.45-8.34L127.45-8.34ZM152.91-8.34L152.91-8.34L156.61-8.34Q157.31-8.34 157.64-7.69L157.64-7.69Q157.73-7.45 157.73-7.27L157.73-7.27L157.73-0.19Q157.73 0.28 157.36 0.66L157.36 0.66Q157.03 0.89 156.66 0.89L156.66 0.89L152.81 0.89Q152.16 0.89 151.83 0.23L151.83 0.23Q151.73 0.05 151.73-0.19L151.73-0.19L151.73-7.27Q151.73-7.73 152.16-8.11L152.16-8.11Q152.44-8.34 152.91-8.34ZM153.61-6.84L153.61-6.84L153.61-0.56Q153.61-0.28 153.84-0.14L153.84-0.14Q153.98-0.05 154.22-0.05L154.22-0.05L155.25-0.05Q155.53-0.05 155.67-0.14L155.67-0.14Q155.86-0.33 155.86-0.56L155.86-0.56L155.86-6.89Q155.86-7.22 155.53-7.36L155.53-7.36Q155.44-7.41 155.34-7.41L155.34-7.41L154.13-7.41Q153.80-7.41 153.66-7.08L153.66-7.08Q153.61-6.98 153.61-6.84ZM176.81 0.89L176.81-8.34L178.69-8.34L178.69-0.56Q178.69-0.23 179.06-0.05L179.06-0.05Q179.16-0.05 179.25-0.05L179.25-0.05L182.81-0.05L182.81 0.89L176.81 0.89Z" transform="translate(0, 8.34375)"></path>
          </g>
        </g>
      </g>
    </g>
  </g>
</svg>